<svg xmlns:xlink="http://www.w3.org/1999/xlink" width="16.849ex" height="9.176ex" style="vertical-align: -4.005ex;" viewBox="0 -2226.5 7254.6 3950.7" role="img" focusable="false" xmlns="http://www.w3.org/2000/svg" aria-labelledby="MathJax-SVG-5-Title">
<title id="MathJax-SVG-5-Title">C=<mjx-container class="MathJax CtxtMenu_Attached_0" jax="CHTML" display="true" tabindex="0" ctxtmenu_counter="6" style="font-size: 113.1%; position: relative;"><mjx-math display="true" class="MJX-TEX" aria-hidden="true" style="margin-left: 0px; margin-right: 0px;"><mjx-mrow><mjx-mo class="mjx-n"><mjx-stretchy-v class="mjx-c5B" style="height: 3.8em; vertical-align: -1.65em;"><mjx-beg><mjx-c></mjx-c></mjx-beg><mjx-ext><mjx-c></mjx-c></mjx-ext><mjx-end><mjx-c></mjx-c></mjx-end><mjx-mark></mjx-mark></mjx-stretchy-v></mjx-mo><mjx-mtable style="min-width: 3.5em;"><mjx-table><mjx-itable><mjx-mtr><mjx-mtd style="padding-right: 0.5em; padding-bottom: 0.2em;"><mjx-mn class="mjx-n"><mjx-c class="mjx-c32"></mjx-c></mjx-mn><mjx-tstrut></mjx-tstrut></mjx-mtd><mjx-mtd style="padding-left: 0.5em; padding-right: 0.5em; padding-bottom: 0.2em;"><mjx-mn class="mjx-n"><mjx-c class="mjx-c36"></mjx-c></mjx-mn><mjx-tstrut></mjx-tstrut></mjx-mtd><mjx-mtd style="padding-left: 0.5em; padding-bottom: 0.2em;"><mjx-mn class="mjx-n"><mjx-c class="mjx-c37"></mjx-c></mjx-mn><mjx-tstrut></mjx-tstrut></mjx-mtd></mjx-mtr><mjx-mtr><mjx-mtd style="padding-right: 0.5em; padding-top: 0.2em; padding-bottom: 0.2em;"><mjx-mn class="mjx-n"><mjx-c class="mjx-c30"></mjx-c></mjx-mn><mjx-tstrut></mjx-tstrut></mjx-mtd><mjx-mtd style="padding: 0.2em 0.5em;"><mjx-mn class="mjx-n"><mjx-c class="mjx-c34"></mjx-c></mjx-mn><mjx-tstrut></mjx-tstrut></mjx-mtd><mjx-mtd style="padding-left: 0.5em; padding-top: 0.2em; padding-bottom: 0.2em;"><mjx-mn class="mjx-n"><mjx-c class="mjx-c32"></mjx-c></mjx-mn><mjx-tstrut></mjx-tstrut></mjx-mtd></mjx-mtr><mjx-mtr><mjx-mtd style="padding-right: 0.5em; padding-top: 0.2em;"><mjx-mn class="mjx-n"><mjx-c class="mjx-c30"></mjx-c></mjx-mn><mjx-tstrut></mjx-tstrut></mjx-mtd><mjx-mtd style="padding-left: 0.5em; padding-right: 0.5em; padding-top: 0.2em;"><mjx-mn class="mjx-n"><mjx-c class="mjx-c30"></mjx-c></mjx-mn><mjx-tstrut></mjx-tstrut></mjx-mtd><mjx-mtd style="padding-left: 0.5em; padding-top: 0.2em;"><mjx-mn class="mjx-n"><mjx-c class="mjx-c30"></mjx-c></mjx-mn><mjx-tstrut></mjx-tstrut></mjx-mtd></mjx-mtr></mjx-itable></mjx-table></mjx-mtable><mjx-mo class="mjx-n"><mjx-stretchy-v class="mjx-c5D" style="height: 3.8em; vertical-align: -1.65em;"><mjx-beg><mjx-c></mjx-c></mjx-beg><mjx-ext><mjx-c></mjx-c></mjx-ext><mjx-end><mjx-c></mjx-c></mjx-end><mjx-mark></mjx-mark></mjx-stretchy-v></mjx-mo></mjx-mrow></mjx-math><mjx-assistive-mml unselectable="on" display="block"><math xmlns="http://www.w3.org/1998/Math/MathML" display="block"><mrow data-mjx-texclass="INNER"><mo data-mjx-texclass="OPEN">[</mo><mtable columnspacing="1em" rowspacing="4pt"><mtr><mtd><mn>2</mn></mtd><mtd><mn>6</mn></mtd><mtd><mn>7</mn></mtd></mtr><mtr><mtd><mn>0</mn></mtd><mtd><mn>4</mn></mtd><mtd><mn>2</mn></mtd></mtr><mtr><mtd><mn>0</mn></mtd><mtd><mn>0</mn></mtd><mtd><mn>0</mn></mtd></mtr></mtable><mo data-mjx-texclass="CLOSE">]</mo></mrow></math></mjx-assistive-mml></mjx-container></title>
<defs aria-hidden="true">
<path stroke-width="1" id="E5-MJMATHI-43" d="M50 252Q50 367 117 473T286 641T490 704Q580 704 633 653Q642 643 648 636T656 626L657 623Q660 623 684 649Q691 655 699 663T715 679T725 690L740 705H746Q760 705 760 698Q760 694 728 561Q692 422 692 421Q690 416 687 415T669 413H653Q647 419 647 422Q647 423 648 429T650 449T651 481Q651 552 619 605T510 659Q484 659 454 652T382 628T299 572T226 479Q194 422 175 346T156 222Q156 108 232 58Q280 24 350 24Q441 24 512 92T606 240Q610 253 612 255T628 257Q648 257 648 248Q648 243 647 239Q618 132 523 55T319 -22Q206 -22 128 53T50 252Z"></path>
<path stroke-width="1" id="E5-MJMAIN-3D" d="M56 347Q56 360 70 367H707Q722 359 722 347Q722 336 708 328L390 327H72Q56 332 56 347ZM56 153Q56 168 72 173H708Q722 163 722 153Q722 140 707 133H70Q56 140 56 153Z"></path>
<path stroke-width="1" id="E5-MJMAIN-5B" d="M118 -250V750H255V710H158V-210H255V-250H118Z"></path>
<path stroke-width="1" id="E5-MJMAIN-32" d="M109 429Q82 429 66 447T50 491Q50 562 103 614T235 666Q326 666 387 610T449 465Q449 422 429 383T381 315T301 241Q265 210 201 149L142 93L218 92Q375 92 385 97Q392 99 409 186V189H449V186Q448 183 436 95T421 3V0H50V19V31Q50 38 56 46T86 81Q115 113 136 137Q145 147 170 174T204 211T233 244T261 278T284 308T305 340T320 369T333 401T340 431T343 464Q343 527 309 573T212 619Q179 619 154 602T119 569T109 550Q109 549 114 549Q132 549 151 535T170 489Q170 464 154 447T109 429Z"></path>
<path stroke-width="1" id="E5-MJMAIN-36" d="M42 313Q42 476 123 571T303 666Q372 666 402 630T432 550Q432 525 418 510T379 495Q356 495 341 509T326 548Q326 592 373 601Q351 623 311 626Q240 626 194 566Q147 500 147 364L148 360Q153 366 156 373Q197 433 263 433H267Q313 433 348 414Q372 400 396 374T435 317Q456 268 456 210V192Q456 169 451 149Q440 90 387 34T253 -22Q225 -22 199 -14T143 16T92 75T56 172T42 313ZM257 397Q227 397 205 380T171 335T154 278T148 216Q148 133 160 97T198 39Q222 21 251 21Q302 21 329 59Q342 77 347 104T352 209Q352 289 347 316T329 361Q302 397 257 397Z"></path>
<path stroke-width="1" id="E5-MJMAIN-37" d="M55 458Q56 460 72 567L88 674Q88 676 108 676H128V672Q128 662 143 655T195 646T364 644H485V605L417 512Q408 500 387 472T360 435T339 403T319 367T305 330T292 284T284 230T278 162T275 80Q275 66 275 52T274 28V19Q270 2 255 -10T221 -22Q210 -22 200 -19T179 0T168 40Q168 198 265 368Q285 400 349 489L395 552H302Q128 552 119 546Q113 543 108 522T98 479L95 458V455H55V458Z"></path>
<path stroke-width="1" id="E5-MJMAIN-30" d="M96 585Q152 666 249 666Q297 666 345 640T423 548Q460 465 460 320Q460 165 417 83Q397 41 362 16T301 -15T250 -22Q224 -22 198 -16T137 16T82 83Q39 165 39 320Q39 494 96 585ZM321 597Q291 629 250 629Q208 629 178 597Q153 571 145 525T137 333Q137 175 145 125T181 46Q209 16 250 16Q290 16 318 46Q347 76 354 130T362 333Q362 478 354 524T321 597Z"></path>
<path stroke-width="1" id="E5-MJMAIN-34" d="M462 0Q444 3 333 3Q217 3 199 0H190V46H221Q241 46 248 46T265 48T279 53T286 61Q287 63 287 115V165H28V211L179 442Q332 674 334 675Q336 677 355 677H373L379 671V211H471V165H379V114Q379 73 379 66T385 54Q393 47 442 46H471V0H462ZM293 211V545L74 212L183 211H293Z"></path>
<path stroke-width="1" id="E5-MJMAIN-5D" d="M22 710V750H159V-250H22V-210H119V710H22Z"></path>
<path stroke-width="1" id="E5-MJSZ4-23A1" d="M319 -645V1154H666V1070H403V-645H319Z"></path>
<path stroke-width="1" id="E5-MJSZ4-23A3" d="M319 -644V1155H403V-560H666V-644H319Z"></path>
<path stroke-width="1" id="E5-MJSZ4-23A2" d="M319 0V602H403V0H319Z"></path>
<path stroke-width="1" id="E5-MJSZ4-23A4" d="M0 1070V1154H347V-645H263V1070H0Z"></path>
<path stroke-width="1" id="E5-MJSZ4-23A6" d="M263 -560V1155H347V-644H0V-560H263Z"></path>
<path stroke-width="1" id="E5-MJSZ4-23A5" d="M263 0V602H347V0H263Z"></path>
</defs>
<g stroke="currentColor" fill="currentColor" stroke-width="0" transform="matrix(1 0 0 -1 0 0)" aria-hidden="true">
 <use xlink:href="#E5-MJMATHI-43" x="0" y="0"></use>
 <use xlink:href="#E5-MJMAIN-3D" x="1038" y="0"></use>
<g transform="translate(2094,0)">
<g transform="translate(0,2150)">
 <use xlink:href="#E5-MJSZ4-23A1" x="0" y="-1155"></use>
<g transform="translate(0,-2048.5066225165565) scale(1,0.49337748344370863)">
 <use xlink:href="#E5-MJSZ4-23A2"></use>
</g>
 <use xlink:href="#E5-MJSZ4-23A3" x="0" y="-3155"></use>
</g>
<g transform="translate(834,0)">
<g transform="translate(-11,0)">
 <use xlink:href="#E5-MJMAIN-32" x="0" y="1350"></use>
 <use xlink:href="#E5-MJMAIN-30" x="0" y="-50"></use>
 <use xlink:href="#E5-MJMAIN-30" x="0" y="-1450"></use>
</g>
<g transform="translate(1490,0)">
 <use xlink:href="#E5-MJMAIN-36" x="0" y="1350"></use>
 <use xlink:href="#E5-MJMAIN-34" x="0" y="-50"></use>
 <use xlink:href="#E5-MJMAIN-30" x="0" y="-1450"></use>
</g>
<g transform="translate(2990,0)">
 <use xlink:href="#E5-MJMAIN-37" x="0" y="1350"></use>
 <use xlink:href="#E5-MJMAIN-32" x="0" y="-50"></use>
 <use xlink:href="#E5-MJMAIN-30" x="0" y="-1450"></use>
</g>
</g>
<g transform="translate(4492,2150)">
 <use xlink:href="#E5-MJSZ4-23A4" x="0" y="-1155"></use>
<g transform="translate(0,-2048.5066225165565) scale(1,0.49337748344370863)">
 <use xlink:href="#E5-MJSZ4-23A5"></use>
</g>
 <use xlink:href="#E5-MJSZ4-23A6" x="0" y="-3155"></use>
</g>
</g>
</g>
</svg>