<svg xmlns:xlink="http://www.w3.org/1999/xlink" width="26.433ex" height="9.176ex" style="vertical-align: -4.005ex;" viewBox="0 -2226.5 11381 3950.7" role="img" focusable="false" xmlns="http://www.w3.org/2000/svg" aria-labelledby="MathJax-SVG-3-Title">
<title id="MathJax-SVG-3-Title">\left(\mathbf{r}-<mjx-container class="MathJax CtxtMenu_Attached_0" jax="CHTML" display="true" tabindex="0" ctxtmenu_counter="2" style="font-size: 113.1%; position: relative;"><mjx-math display="true" class="MJX-TEX" aria-hidden="true" style="margin-left: 0px; margin-right: 0px;"><mjx-mrow><mjx-mo class="mjx-n"><mjx-stretchy-v class="mjx-c5B" style="height: 3.8em; vertical-align: -1.65em;"><mjx-beg><mjx-c></mjx-c></mjx-beg><mjx-ext><mjx-c></mjx-c></mjx-ext><mjx-end><mjx-c></mjx-c></mjx-end><mjx-mark></mjx-mark></mjx-stretchy-v></mjx-mo><mjx-mtable style="min-width: 0.5em;"><mjx-table><mjx-itable><mjx-mtr><mjx-mtd style="padding-bottom: 0.2em;"><mjx-mn class="mjx-n"><mjx-c class="mjx-c34"></mjx-c></mjx-mn><mjx-tstrut></mjx-tstrut></mjx-mtd></mjx-mtr><mjx-mtr><mjx-mtd style="padding-top: 0.2em; padding-bottom: 0.2em;"><mjx-mn class="mjx-n"><mjx-c class="mjx-c38"></mjx-c></mjx-mn><mjx-tstrut></mjx-tstrut></mjx-mtd></mjx-mtr><mjx-mtr><mjx-mtd style="padding-top: 0.2em;"><mjx-mn class="mjx-n"><mjx-c class="mjx-c32"></mjx-c></mjx-mn><mjx-tstrut></mjx-tstrut></mjx-mtd></mjx-mtr></mjx-itable></mjx-table></mjx-mtable><mjx-mo class="mjx-n"><mjx-stretchy-v class="mjx-c5D" style="height: 3.8em; vertical-align: -1.65em;"><mjx-beg><mjx-c></mjx-c></mjx-beg><mjx-ext><mjx-c></mjx-c></mjx-ext><mjx-end><mjx-c></mjx-c></mjx-end><mjx-mark></mjx-mark></mjx-stretchy-v></mjx-mo></mjx-mrow></mjx-math><mjx-assistive-mml unselectable="on" display="block"><math xmlns="http://www.w3.org/1998/Math/MathML" display="block"><mrow data-mjx-texclass="INNER"><mo data-mjx-texclass="OPEN">[</mo><mtable columnspacing="1em" rowspacing="4pt"><mtr><mtd><mn>4</mn></mtd></mtr><mtr><mtd><mn>8</mn></mtd></mtr><mtr><mtd><mn>2</mn></mtd></mtr></mtable><mo data-mjx-texclass="CLOSE">]</mo></mrow></math></mjx-assistive-mml></mjx-container>\right)\cdot <mjx-container class="MathJax CtxtMenu_Attached_0" jax="CHTML" display="true" tabindex="0" ctxtmenu_counter="3" style="font-size: 113.1%; position: relative;"><mjx-math display="true" class="MJX-TEX" aria-hidden="true" style="margin-left: 0px; margin-right: 0px;"><mjx-mrow><mjx-mo class="mjx-n"><mjx-stretchy-v class="mjx-c5B" style="height: 3.8em; vertical-align: -1.65em;"><mjx-beg><mjx-c></mjx-c></mjx-beg><mjx-ext><mjx-c></mjx-c></mjx-ext><mjx-end><mjx-c></mjx-c></mjx-end><mjx-mark></mjx-mark></mjx-stretchy-v></mjx-mo><mjx-mtable style="min-width: 1.278em;"><mjx-table><mjx-itable><mjx-mtr><mjx-mtd style="padding-bottom: 0.2em;"><mjx-mn class="mjx-n"><mjx-c class="mjx-c32"></mjx-c></mjx-mn><mjx-tstrut></mjx-tstrut></mjx-mtd></mjx-mtr><mjx-mtr><mjx-mtd style="padding-top: 0.2em; padding-bottom: 0.2em;"><mjx-mn class="mjx-n"><mjx-c class="mjx-c34"></mjx-c></mjx-mn><mjx-tstrut></mjx-tstrut></mjx-mtd></mjx-mtr><mjx-mtr><mjx-mtd style="padding-top: 0.2em;"><mjx-mo class="mjx-n"><mjx-c class="mjx-c2212"></mjx-c></mjx-mo><mjx-mn class="mjx-n"><mjx-c class="mjx-c34"></mjx-c></mjx-mn><mjx-tstrut></mjx-tstrut></mjx-mtd></mjx-mtr></mjx-itable></mjx-table></mjx-mtable><mjx-mo class="mjx-n"><mjx-stretchy-v class="mjx-c5D" style="height: 3.8em; vertical-align: -1.65em;"><mjx-beg><mjx-c></mjx-c></mjx-beg><mjx-ext><mjx-c></mjx-c></mjx-ext><mjx-end><mjx-c></mjx-c></mjx-end><mjx-mark></mjx-mark></mjx-stretchy-v></mjx-mo></mjx-mrow></mjx-math><mjx-assistive-mml unselectable="on" display="block"><math xmlns="http://www.w3.org/1998/Math/MathML" display="block"><mrow data-mjx-texclass="INNER"><mo data-mjx-texclass="OPEN">[</mo><mtable columnspacing="1em" rowspacing="4pt"><mtr><mtd><mn>2</mn></mtd></mtr><mtr><mtd><mn>4</mn></mtd></mtr><mtr><mtd><mo>−</mo><mn>4</mn></mtd></mtr></mtable><mo data-mjx-texclass="CLOSE">]</mo></mrow></math></mjx-assistive-mml></mjx-container>=0.</title>
<defs aria-hidden="true">
<path stroke-width="1" id="E3-MJMAIN-28" d="M94 250Q94 319 104 381T127 488T164 576T202 643T244 695T277 729T302 750H315H319Q333 750 333 741Q333 738 316 720T275 667T226 581T184 443T167 250T184 58T225 -81T274 -167T316 -220T333 -241Q333 -250 318 -250H315H302L274 -226Q180 -141 137 -14T94 250Z"></path>
<path stroke-width="1" id="E3-MJMAINB-72" d="M405 293T374 293T324 312T305 361Q305 378 312 394Q315 397 315 399Q305 399 294 394T266 375T238 329T222 249Q221 241 221 149V62H308V0H298Q280 3 161 3Q47 3 38 0H29V62H98V210V303Q98 353 96 363T83 376Q69 380 42 380H29V442H32L118 446Q204 450 205 450H210V414L211 378Q247 449 315 449H321Q384 449 413 422T442 360Q442 332 424 313Z"></path>
<path stroke-width="1" id="E3-MJMAIN-2212" d="M84 237T84 250T98 270H679Q694 262 694 250T679 230H98Q84 237 84 250Z"></path>
<path stroke-width="1" id="E3-MJMAIN-5B" d="M118 -250V750H255V710H158V-210H255V-250H118Z"></path>
<path stroke-width="1" id="E3-MJMAIN-34" d="M462 0Q444 3 333 3Q217 3 199 0H190V46H221Q241 46 248 46T265 48T279 53T286 61Q287 63 287 115V165H28V211L179 442Q332 674 334 675Q336 677 355 677H373L379 671V211H471V165H379V114Q379 73 379 66T385 54Q393 47 442 46H471V0H462ZM293 211V545L74 212L183 211H293Z"></path>
<path stroke-width="1" id="E3-MJMAIN-38" d="M70 417T70 494T124 618T248 666Q319 666 374 624T429 515Q429 485 418 459T392 417T361 389T335 371T324 363L338 354Q352 344 366 334T382 323Q457 264 457 174Q457 95 399 37T249 -22Q159 -22 101 29T43 155Q43 263 172 335L154 348Q133 361 127 368Q70 417 70 494ZM286 386L292 390Q298 394 301 396T311 403T323 413T334 425T345 438T355 454T364 471T369 491T371 513Q371 556 342 586T275 624Q268 625 242 625Q201 625 165 599T128 534Q128 511 141 492T167 463T217 431Q224 426 228 424L286 386ZM250 21Q308 21 350 55T392 137Q392 154 387 169T375 194T353 216T330 234T301 253T274 270Q260 279 244 289T218 306L210 311Q204 311 181 294T133 239T107 157Q107 98 150 60T250 21Z"></path>
<path stroke-width="1" id="E3-MJMAIN-32" d="M109 429Q82 429 66 447T50 491Q50 562 103 614T235 666Q326 666 387 610T449 465Q449 422 429 383T381 315T301 241Q265 210 201 149L142 93L218 92Q375 92 385 97Q392 99 409 186V189H449V186Q448 183 436 95T421 3V0H50V19V31Q50 38 56 46T86 81Q115 113 136 137Q145 147 170 174T204 211T233 244T261 278T284 308T305 340T320 369T333 401T340 431T343 464Q343 527 309 573T212 619Q179 619 154 602T119 569T109 550Q109 549 114 549Q132 549 151 535T170 489Q170 464 154 447T109 429Z"></path>
<path stroke-width="1" id="E3-MJMAIN-5D" d="M22 710V750H159V-250H22V-210H119V710H22Z"></path>
<path stroke-width="1" id="E3-MJSZ4-23A1" d="M319 -645V1154H666V1070H403V-645H319Z"></path>
<path stroke-width="1" id="E3-MJSZ4-23A3" d="M319 -644V1155H403V-560H666V-644H319Z"></path>
<path stroke-width="1" id="E3-MJSZ4-23A2" d="M319 0V602H403V0H319Z"></path>
<path stroke-width="1" id="E3-MJSZ4-23A4" d="M0 1070V1154H347V-645H263V1070H0Z"></path>
<path stroke-width="1" id="E3-MJSZ4-23A6" d="M263 -560V1155H347V-644H0V-560H263Z"></path>
<path stroke-width="1" id="E3-MJSZ4-23A5" d="M263 0V602H347V0H263Z"></path>
<path stroke-width="1" id="E3-MJMAIN-29" d="M60 749L64 750Q69 750 74 750H86L114 726Q208 641 251 514T294 250Q294 182 284 119T261 12T224 -76T186 -143T145 -194T113 -227T90 -246Q87 -249 86 -250H74Q66 -250 63 -250T58 -247T55 -238Q56 -237 66 -225Q221 -64 221 250T66 725Q56 737 55 738Q55 746 60 749Z"></path>
<path stroke-width="1" id="E3-MJSZ4-239B" d="M837 1154Q843 1148 843 1145Q843 1141 818 1106T753 1002T667 841T574 604T494 299Q417 -84 417 -609Q417 -641 416 -647T411 -654Q409 -655 366 -655Q299 -655 297 -654Q292 -652 292 -643T291 -583Q293 -400 304 -242T347 110T432 470T574 813T785 1136Q787 1139 790 1142T794 1147T796 1150T799 1152T802 1153T807 1154T813 1154H819H837Z"></path>
<path stroke-width="1" id="E3-MJSZ4-239D" d="M843 -635Q843 -638 837 -644H820Q801 -644 800 -643Q792 -635 785 -626Q684 -503 605 -363T473 -75T385 216T330 518T302 809T291 1093Q291 1144 291 1153T296 1164Q298 1165 366 1165Q409 1165 411 1164Q415 1163 416 1157T417 1119Q417 529 517 109T833 -617Q843 -631 843 -635Z"></path>
<path stroke-width="1" id="E3-MJSZ4-239C" d="M413 -9Q412 -9 407 -9T388 -10T354 -10Q300 -10 297 -9Q294 -8 293 -5Q291 5 291 127V300Q291 602 292 605L296 609Q298 610 366 610Q382 610 392 610T407 610T412 609Q416 609 416 592T417 473V127Q417 -9 413 -9Z"></path>
<path stroke-width="1" id="E3-MJSZ4-239E" d="M31 1143Q31 1154 49 1154H59Q72 1154 75 1152T89 1136Q190 1013 269 873T401 585T489 294T544 -8T572 -299T583 -583Q583 -634 583 -643T577 -654Q575 -655 508 -655Q465 -655 463 -654Q459 -653 458 -647T457 -609Q457 -58 371 340T100 1037Q87 1059 61 1098T31 1143Z"></path>
<path stroke-width="1" id="E3-MJSZ4-23A0" d="M56 -644H50Q31 -644 31 -635Q31 -632 37 -622Q69 -579 100 -527Q286 -228 371 170T457 1119Q457 1161 462 1164Q464 1165 520 1165Q575 1165 577 1164Q582 1162 582 1153T583 1093Q581 910 570 752T527 400T442 40T300 -303T89 -626Q78 -640 75 -642T61 -644H56Z"></path>
<path stroke-width="1" id="E3-MJSZ4-239F" d="M579 -9Q578 -9 573 -9T554 -10T520 -10Q466 -10 463 -9Q460 -8 459 -5Q457 5 457 127V300Q457 602 458 605L462 609Q464 610 532 610Q548 610 558 610T573 610T578 609Q582 609 582 592T583 473V127Q583 -9 579 -9Z"></path>
<path stroke-width="1" id="E3-MJMAIN-22C5" d="M78 250Q78 274 95 292T138 310Q162 310 180 294T199 251Q199 226 182 208T139 190T96 207T78 250Z"></path>
<path stroke-width="1" id="E3-MJMAIN-3D" d="M56 347Q56 360 70 367H707Q722 359 722 347Q722 336 708 328L390 327H72Q56 332 56 347ZM56 153Q56 168 72 173H708Q722 163 722 153Q722 140 707 133H70Q56 140 56 153Z"></path>
<path stroke-width="1" id="E3-MJMAIN-30" d="M96 585Q152 666 249 666Q297 666 345 640T423 548Q460 465 460 320Q460 165 417 83Q397 41 362 16T301 -15T250 -22Q224 -22 198 -16T137 16T82 83Q39 165 39 320Q39 494 96 585ZM321 597Q291 629 250 629Q208 629 178 597Q153 571 145 525T137 333Q137 175 145 125T181 46Q209 16 250 16Q290 16 318 46Q347 76 354 130T362 333Q362 478 354 524T321 597Z"></path>
<path stroke-width="1" id="E3-MJMAIN-2E" d="M78 60Q78 84 95 102T138 120Q162 120 180 104T199 61Q199 36 182 18T139 0T96 17T78 60Z"></path>
</defs>
<g stroke="currentColor" fill="currentColor" stroke-width="0" transform="matrix(1 0 0 -1 0 0)" aria-hidden="true">
<g transform="translate(0,2150)">
 <use xlink:href="#E3-MJSZ4-239B" x="0" y="-1156"></use>
<g transform="translate(0,-2033.6645264847511) scale(1,0.4446227929373997)">
 <use xlink:href="#E3-MJSZ4-239C"></use>
</g>
 <use xlink:href="#E3-MJSZ4-239D" x="0" y="-3155"></use>
</g>
 <use xlink:href="#E3-MJMAINB-72" x="875" y="0"></use>
 <use xlink:href="#E3-MJMAIN-2212" x="1572" y="0"></use>
<g transform="translate(2572,0)">
<g transform="translate(0,2150)">
 <use xlink:href="#E3-MJSZ4-23A1" x="0" y="-1155"></use>
<g transform="translate(0,-2048.5066225165565) scale(1,0.49337748344370863)">
 <use xlink:href="#E3-MJSZ4-23A2"></use>
</g>
 <use xlink:href="#E3-MJSZ4-23A3" x="0" y="-3155"></use>
</g>
<g transform="translate(834,0)">
<g transform="translate(-11,0)">
 <use xlink:href="#E3-MJMAIN-34" x="0" y="1350"></use>
 <use xlink:href="#E3-MJMAIN-38" x="0" y="-50"></use>
 <use xlink:href="#E3-MJMAIN-32" x="0" y="-1450"></use>
</g>
</g>
<g transform="translate(1491,2150)">
 <use xlink:href="#E3-MJSZ4-23A4" x="0" y="-1155"></use>
<g transform="translate(0,-2048.5066225165565) scale(1,0.49337748344370863)">
 <use xlink:href="#E3-MJSZ4-23A5"></use>
</g>
 <use xlink:href="#E3-MJSZ4-23A6" x="0" y="-3155"></use>
</g>
</g>
<g transform="translate(4731,2150)">
 <use xlink:href="#E3-MJSZ4-239E" x="0" y="-1155"></use>
<g transform="translate(0,-2033.645264847512) scale(1,0.4462279293739968)">
 <use xlink:href="#E3-MJSZ4-239F"></use>
</g>
 <use xlink:href="#E3-MJSZ4-23A0" x="0" y="-3155"></use>
</g>
 <use xlink:href="#E3-MJMAIN-22C5" x="5829" y="0"></use>
<g transform="translate(6330,0)">
<g transform="translate(0,2150)">
 <use xlink:href="#E3-MJSZ4-23A1" x="0" y="-1155"></use>
<g transform="translate(0,-2048.5066225165565) scale(1,0.49337748344370863)">
 <use xlink:href="#E3-MJSZ4-23A2"></use>
</g>
 <use xlink:href="#E3-MJSZ4-23A3" x="0" y="-3155"></use>
</g>
<g transform="translate(834,0)">
<g transform="translate(-11,0)">
 <use xlink:href="#E3-MJMAIN-32" x="389" y="1350"></use>
 <use xlink:href="#E3-MJMAIN-34" x="389" y="-50"></use>
<g transform="translate(0,-1450)">
 <use xlink:href="#E3-MJMAIN-2212" x="0" y="0"></use>
 <use xlink:href="#E3-MJMAIN-34" x="778" y="0"></use>
</g>
</g>
</g>
<g transform="translate(2270,2150)">
 <use xlink:href="#E3-MJSZ4-23A4" x="0" y="-1155"></use>
<g transform="translate(0,-2048.5066225165565) scale(1,0.49337748344370863)">
 <use xlink:href="#E3-MJSZ4-23A5"></use>
</g>
 <use xlink:href="#E3-MJSZ4-23A6" x="0" y="-3155"></use>
</g>
</g>
 <use xlink:href="#E3-MJMAIN-3D" x="9545" y="0"></use>
<g transform="translate(10602,0)">
 <use xlink:href="#E3-MJMAIN-30"></use>
 <use xlink:href="#E3-MJMAIN-2E" x="500" y="0"></use>
</g>
</g>
</svg>