<svg xmlns:xlink="http://www.w3.org/1999/xlink" width="54.16ex" height="9.843ex" style="vertical-align: -4.338ex;" viewBox="0 -2370 23318.7 4237.8" role="img" focusable="false" xmlns="http://www.w3.org/2000/svg" aria-labelledby="MathJax-SVG-4-Title">
<title id="MathJax-SVG-4-Title">
	P= <mjx-container class="MathJax CtxtMenu_Attached_0" jax="CHTML" display="true" tabindex="0" ctxtmenu_counter="29" style="font-size: 113.1%; position: relative;"><mjx-math display="true" class="MJX-TEX" aria-hidden="true" style="margin-left: 0px; margin-right: 0px;"><mjx-mrow><mjx-mo class="mjx-n"><mjx-stretchy-v class="mjx-c5B" style="height: 3.8em; vertical-align: -1.65em;"><mjx-beg><mjx-c></mjx-c></mjx-beg><mjx-ext><mjx-c></mjx-c></mjx-ext><mjx-end><mjx-c></mjx-c></mjx-end><mjx-mark></mjx-mark></mjx-stretchy-v></mjx-mo><mjx-mtable style="min-width: 6.144em;"><mjx-table><mjx-itable><mjx-mtr><mjx-mtd style="padding-right: 0.5em; padding-bottom: 0.2em;"><mjx-mo class="mjx-n"><mjx-c class="mjx-c7C"></mjx-c></mjx-mo><mjx-tstrut></mjx-tstrut></mjx-mtd><mjx-mtd style="padding-left: 0.5em; padding-bottom: 0.2em;"><mjx-mo class="mjx-n"><mjx-c class="mjx-c7C"></mjx-c></mjx-mo><mjx-tstrut></mjx-tstrut></mjx-mtd></mjx-mtr><mjx-mtr><mjx-mtd style="padding-right: 0.5em; padding-top: 0.2em; padding-bottom: 0.2em;"><mjx-mtext class="mjx-n"><mjx-c class="mjx-c52"></mjx-c><mjx-c class="mjx-c65"></mjx-c></mjx-mtext><mjx-mo class="mjx-n"><mjx-c class="mjx-c28"></mjx-c></mjx-mo><mjx-texatom texclass="ORD"><mjx-mi class="mjx-b"><mjx-c class="mjx-c1D42F TEX-B"></mjx-c></mjx-mi></mjx-texatom><mjx-mo class="mjx-n"><mjx-c class="mjx-c29"></mjx-c></mjx-mo><mjx-tstrut></mjx-tstrut></mjx-mtd><mjx-mtd style="padding-left: 0.5em; padding-top: 0.2em; padding-bottom: 0.2em;"><mjx-mtext class="mjx-n"><mjx-c class="mjx-c49"></mjx-c><mjx-c class="mjx-c6D"></mjx-c></mjx-mtext><mjx-mo class="mjx-n"><mjx-c class="mjx-c28"></mjx-c></mjx-mo><mjx-texatom texclass="ORD"><mjx-mi class="mjx-b"><mjx-c class="mjx-c1D42F TEX-B"></mjx-c></mjx-mi></mjx-texatom><mjx-mo class="mjx-n"><mjx-c class="mjx-c29"></mjx-c></mjx-mo><mjx-tstrut></mjx-tstrut></mjx-mtd></mjx-mtr><mjx-mtr><mjx-mtd style="padding-right: 0.5em; padding-top: 0.2em;"><mjx-mo class="mjx-n"><mjx-c class="mjx-c7C"></mjx-c></mjx-mo><mjx-tstrut></mjx-tstrut></mjx-mtd><mjx-mtd style="padding-left: 0.5em; padding-top: 0.2em;"><mjx-mo class="mjx-n"><mjx-c class="mjx-c7C"></mjx-c></mjx-mo><mjx-tstrut></mjx-tstrut></mjx-mtd></mjx-mtr></mjx-itable></mjx-table></mjx-mtable><mjx-mo class="mjx-n"><mjx-stretchy-v class="mjx-c5D" style="height: 3.8em; vertical-align: -1.65em;"><mjx-beg><mjx-c></mjx-c></mjx-beg><mjx-ext><mjx-c></mjx-c></mjx-ext><mjx-end><mjx-c></mjx-c></mjx-end><mjx-mark></mjx-mark></mjx-stretchy-v></mjx-mo></mjx-mrow></mjx-math><mjx-assistive-mml unselectable="on" display="block"><math xmlns="http://www.w3.org/1998/Math/MathML" display="block"><mrow data-mjx-texclass="INNER"><mo data-mjx-texclass="OPEN">[</mo><mtable columnspacing="1em" rowspacing="4pt"><mtr><mtd><mo data-mjx-texclass="ORD" fence="false" stretchy="false">|</mo></mtd><mtd><mo data-mjx-texclass="ORD" fence="false" stretchy="false">|</mo></mtd></mtr><mtr><mtd><mtext>Re</mtext><mo stretchy="false">(</mo><mrow data-mjx-texclass="ORD"><mi mathvariant="bold">v</mi></mrow><mo stretchy="false">)</mo></mtd><mtd><mtext>Im</mtext><mo stretchy="false">(</mo><mrow data-mjx-texclass="ORD"><mi mathvariant="bold">v</mi></mrow><mo stretchy="false">)</mo></mtd></mtr><mtr><mtd><mo data-mjx-texclass="ORD" fence="false" stretchy="false">|</mo></mtd><mtd><mo data-mjx-texclass="ORD" fence="false" stretchy="false">|</mo></mtd></mtr></mtable><mo data-mjx-texclass="CLOSE">]</mo></mrow></math></mjx-assistive-mml></mjx-container> ,\qquad
	C= <mjx-container class="MathJax CtxtMenu_Attached_0" jax="CHTML" display="true" tabindex="0" ctxtmenu_counter="30" style="font-size: 113.1%; position: relative;"><mjx-math display="true" class="MJX-TEX" aria-hidden="true" style="margin-left: 0px; margin-right: 0px;"><mjx-mrow><mjx-mo class="mjx-s3"><mjx-c class="mjx-c5B TEX-S3"></mjx-c></mjx-mo><mjx-mtable style="min-width: 6.888em;"><mjx-table><mjx-itable><mjx-mtr><mjx-mtd style="padding-right: 0.5em; padding-bottom: 0.2em;"><mjx-mtext class="mjx-n"><mjx-c class="mjx-c52"></mjx-c><mjx-c class="mjx-c65"></mjx-c></mjx-mtext><mjx-mo class="mjx-n"><mjx-c class="mjx-c28"></mjx-c></mjx-mo><mjx-mi class="mjx-i"><mjx-c class="mjx-c1D706 TEX-I"></mjx-c></mjx-mi><mjx-mo class="mjx-n"><mjx-c class="mjx-c29"></mjx-c></mjx-mo><mjx-tstrut></mjx-tstrut></mjx-mtd><mjx-mtd style="padding-left: 0.5em; padding-bottom: 0.2em;"><mjx-mtext class="mjx-n"><mjx-c class="mjx-c49"></mjx-c><mjx-c class="mjx-c6D"></mjx-c></mjx-mtext><mjx-mo class="mjx-n"><mjx-c class="mjx-c28"></mjx-c></mjx-mo><mjx-mi class="mjx-i"><mjx-c class="mjx-c1D706 TEX-I"></mjx-c></mjx-mi><mjx-mo class="mjx-n"><mjx-c class="mjx-c29"></mjx-c></mjx-mo><mjx-tstrut></mjx-tstrut></mjx-mtd></mjx-mtr><mjx-mtr><mjx-mtd style="padding-right: 0.5em; padding-top: 0.2em;"><mjx-mo class="mjx-n"><mjx-c class="mjx-c2212"></mjx-c></mjx-mo><mjx-mtext class="mjx-n"><mjx-c class="mjx-c49"></mjx-c><mjx-c class="mjx-c6D"></mjx-c></mjx-mtext><mjx-mo class="mjx-n"><mjx-c class="mjx-c28"></mjx-c></mjx-mo><mjx-mi class="mjx-i"><mjx-c class="mjx-c1D706 TEX-I"></mjx-c></mjx-mi><mjx-mo class="mjx-n"><mjx-c class="mjx-c29"></mjx-c></mjx-mo><mjx-tstrut></mjx-tstrut></mjx-mtd><mjx-mtd style="padding-left: 0.5em; padding-top: 0.2em;"><mjx-mtext class="mjx-n"><mjx-c class="mjx-c52"></mjx-c><mjx-c class="mjx-c65"></mjx-c></mjx-mtext><mjx-mo class="mjx-n"><mjx-c class="mjx-c28"></mjx-c></mjx-mo><mjx-mi class="mjx-i"><mjx-c class="mjx-c1D706 TEX-I"></mjx-c></mjx-mi><mjx-mo class="mjx-n"><mjx-c class="mjx-c29"></mjx-c></mjx-mo><mjx-tstrut></mjx-tstrut></mjx-mtd></mjx-mtr></mjx-itable></mjx-table></mjx-mtable><mjx-mo class="mjx-s3"><mjx-c class="mjx-c5D TEX-S3"></mjx-c></mjx-mo></mjx-mrow></mjx-math><mjx-assistive-mml unselectable="on" display="block"><math xmlns="http://www.w3.org/1998/Math/MathML" display="block"><mrow data-mjx-texclass="INNER"><mo data-mjx-texclass="OPEN">[</mo><mtable columnspacing="1em" rowspacing="4pt"><mtr><mtd><mtext>Re</mtext><mo stretchy="false">(</mo><mi>λ</mi><mo stretchy="false">)</mo></mtd><mtd><mtext>Im</mtext><mo stretchy="false">(</mo><mi>λ</mi><mo stretchy="false">)</mo></mtd></mtr><mtr><mtd><mo>−</mo><mtext>Im</mtext><mo stretchy="false">(</mo><mi>λ</mi><mo stretchy="false">)</mo></mtd><mtd><mtext>Re</mtext><mo stretchy="false">(</mo><mi>λ</mi><mo stretchy="false">)</mo></mtd></mtr></mtable><mo data-mjx-texclass="CLOSE">]</mo></mrow></math></mjx-assistive-mml></mjx-container>,
</title>
<defs aria-hidden="true">
<path stroke-width="1" id="E4-MJMATHI-50" d="M287 628Q287 635 230 637Q206 637 199 638T192 648Q192 649 194 659Q200 679 203 681T397 683Q587 682 600 680Q664 669 707 631T751 530Q751 453 685 389Q616 321 507 303Q500 302 402 301H307L277 182Q247 66 247 59Q247 55 248 54T255 50T272 48T305 46H336Q342 37 342 35Q342 19 335 5Q330 0 319 0Q316 0 282 1T182 2Q120 2 87 2T51 1Q33 1 33 11Q33 13 36 25Q40 41 44 43T67 46Q94 46 127 49Q141 52 146 61Q149 65 218 339T287 628ZM645 554Q645 567 643 575T634 597T609 619T560 635Q553 636 480 637Q463 637 445 637T416 636T404 636Q391 635 386 627Q384 621 367 550T332 412T314 344Q314 342 395 342H407H430Q542 342 590 392Q617 419 631 471T645 554Z"></path>
<path stroke-width="1" id="E4-MJMAIN-3D" d="M56 347Q56 360 70 367H707Q722 359 722 347Q722 336 708 328L390 327H72Q56 332 56 347ZM56 153Q56 168 72 173H708Q722 163 722 153Q722 140 707 133H70Q56 140 56 153Z"></path>
<path stroke-width="1" id="E4-MJMAIN-5B" d="M118 -250V750H255V710H158V-210H255V-250H118Z"></path>
<path stroke-width="1" id="E4-MJMAIN-7C" d="M139 -249H137Q125 -249 119 -235V251L120 737Q130 750 139 750Q152 750 159 735V-235Q151 -249 141 -249H139Z"></path>
<path stroke-width="1" id="E4-MJMAIN-52" d="M130 622Q123 629 119 631T103 634T60 637H27V683H202H236H300Q376 683 417 677T500 648Q595 600 609 517Q610 512 610 501Q610 468 594 439T556 392T511 361T472 343L456 338Q459 335 467 332Q497 316 516 298T545 254T559 211T568 155T578 94Q588 46 602 31T640 16H645Q660 16 674 32T692 87Q692 98 696 101T712 105T728 103T732 90Q732 59 716 27T672 -16Q656 -22 630 -22Q481 -16 458 90Q456 101 456 163T449 246Q430 304 373 320L363 322L297 323H231V192L232 61Q238 51 249 49T301 46H334V0H323Q302 3 181 3Q59 3 38 0H27V46H60Q102 47 111 49T130 61V622ZM491 499V509Q491 527 490 539T481 570T462 601T424 623T362 636Q360 636 340 636T304 637H283Q238 637 234 628Q231 624 231 492V360H289Q390 360 434 378T489 456Q491 467 491 499Z"></path>
<path stroke-width="1" id="E4-MJMAIN-65" d="M28 218Q28 273 48 318T98 391T163 433T229 448Q282 448 320 430T378 380T406 316T415 245Q415 238 408 231H126V216Q126 68 226 36Q246 30 270 30Q312 30 342 62Q359 79 369 104L379 128Q382 131 395 131H398Q415 131 415 121Q415 117 412 108Q393 53 349 21T250 -11Q155 -11 92 58T28 218ZM333 275Q322 403 238 411H236Q228 411 220 410T195 402T166 381T143 340T127 274V267H333V275Z"></path>
<path stroke-width="1" id="E4-MJMAIN-28" d="M94 250Q94 319 104 381T127 488T164 576T202 643T244 695T277 729T302 750H315H319Q333 750 333 741Q333 738 316 720T275 667T226 581T184 443T167 250T184 58T225 -81T274 -167T316 -220T333 -241Q333 -250 318 -250H315H302L274 -226Q180 -141 137 -14T94 250Z"></path>
<path stroke-width="1" id="E4-MJMAINB-76" d="M401 444Q413 441 495 441Q568 441 574 444H580V382H510L409 156Q348 18 339 6Q331 -4 320 -4Q318 -4 313 -4T303 -3H288Q273 -3 264 12T221 102Q206 135 197 156L96 382H26V444H34Q49 441 145 441Q252 441 270 444H279V382H231L284 264Q335 149 338 149Q338 150 389 264T442 381Q442 382 418 382H394V444H401Z"></path>
<path stroke-width="1" id="E4-MJMAIN-29" d="M60 749L64 750Q69 750 74 750H86L114 726Q208 641 251 514T294 250Q294 182 284 119T261 12T224 -76T186 -143T145 -194T113 -227T90 -246Q87 -249 86 -250H74Q66 -250 63 -250T58 -247T55 -238Q56 -237 66 -225Q221 -64 221 250T66 725Q56 737 55 738Q55 746 60 749Z"></path>
<path stroke-width="1" id="E4-MJMAIN-49" d="M328 0Q307 3 180 3T32 0H21V46H43Q92 46 106 49T126 60Q128 63 128 342Q128 620 126 623Q122 628 118 630T96 635T43 637H21V683H32Q53 680 180 680T328 683H339V637H317Q268 637 254 634T234 623Q232 620 232 342Q232 63 234 60Q238 55 242 53T264 48T317 46H339V0H328Z"></path>
<path stroke-width="1" id="E4-MJMAIN-6D" d="M41 46H55Q94 46 102 60V68Q102 77 102 91T102 122T103 161T103 203Q103 234 103 269T102 328V351Q99 370 88 376T43 385H25V408Q25 431 27 431L37 432Q47 433 65 434T102 436Q119 437 138 438T167 441T178 442H181V402Q181 364 182 364T187 369T199 384T218 402T247 421T285 437Q305 442 336 442Q351 442 364 440T387 434T406 426T421 417T432 406T441 395T448 384T452 374T455 366L457 361L460 365Q463 369 466 373T475 384T488 397T503 410T523 422T546 432T572 439T603 442Q729 442 740 329Q741 322 741 190V104Q741 66 743 59T754 49Q775 46 803 46H819V0H811L788 1Q764 2 737 2T699 3Q596 3 587 0H579V46H595Q656 46 656 62Q657 64 657 200Q656 335 655 343Q649 371 635 385T611 402T585 404Q540 404 506 370Q479 343 472 315T464 232V168V108Q464 78 465 68T468 55T477 49Q498 46 526 46H542V0H534L510 1Q487 2 460 2T422 3Q319 3 310 0H302V46H318Q379 46 379 62Q380 64 380 200Q379 335 378 343Q372 371 358 385T334 402T308 404Q263 404 229 370Q202 343 195 315T187 232V168V108Q187 78 188 68T191 55T200 49Q221 46 249 46H265V0H257L234 1Q210 2 183 2T145 3Q42 3 33 0H25V46H41Z"></path>
<path stroke-width="1" id="E4-MJMAIN-5D" d="M22 710V750H159V-250H22V-210H119V710H22Z"></path>
<path stroke-width="1" id="E4-MJSZ4-23A1" d="M319 -645V1154H666V1070H403V-645H319Z"></path>
<path stroke-width="1" id="E4-MJSZ4-23A3" d="M319 -644V1155H403V-560H666V-644H319Z"></path>
<path stroke-width="1" id="E4-MJSZ4-23A2" d="M319 0V602H403V0H319Z"></path>
<path stroke-width="1" id="E4-MJSZ4-23A4" d="M0 1070V1154H347V-645H263V1070H0Z"></path>
<path stroke-width="1" id="E4-MJSZ4-23A6" d="M263 -560V1155H347V-644H0V-560H263Z"></path>
<path stroke-width="1" id="E4-MJSZ4-23A5" d="M263 0V602H347V0H263Z"></path>
<path stroke-width="1" id="E4-MJMAIN-2C" d="M78 35T78 60T94 103T137 121Q165 121 187 96T210 8Q210 -27 201 -60T180 -117T154 -158T130 -185T117 -194Q113 -194 104 -185T95 -172Q95 -168 106 -156T131 -126T157 -76T173 -3V9L172 8Q170 7 167 6T161 3T152 1T140 0Q113 0 96 17Z"></path>
<path stroke-width="1" id="E4-MJMATHI-43" d="M50 252Q50 367 117 473T286 641T490 704Q580 704 633 653Q642 643 648 636T656 626L657 623Q660 623 684 649Q691 655 699 663T715 679T725 690L740 705H746Q760 705 760 698Q760 694 728 561Q692 422 692 421Q690 416 687 415T669 413H653Q647 419 647 422Q647 423 648 429T650 449T651 481Q651 552 619 605T510 659Q484 659 454 652T382 628T299 572T226 479Q194 422 175 346T156 222Q156 108 232 58Q280 24 350 24Q441 24 512 92T606 240Q610 253 612 255T628 257Q648 257 648 248Q648 243 647 239Q618 132 523 55T319 -22Q206 -22 128 53T50 252Z"></path>
<path stroke-width="1" id="E4-MJMATHI-3BB" d="M166 673Q166 685 183 694H202Q292 691 316 644Q322 629 373 486T474 207T524 67Q531 47 537 34T546 15T551 6T555 2T556 -2T550 -11H482Q457 3 450 18T399 152L354 277L340 262Q327 246 293 207T236 141Q211 112 174 69Q123 9 111 -1T83 -12Q47 -12 47 20Q47 37 61 52T199 187Q229 216 266 252T321 306L338 322Q338 323 288 462T234 612Q214 657 183 657Q166 657 166 673Z"></path>
<path stroke-width="1" id="E4-MJMAIN-2212" d="M84 237T84 250T98 270H679Q694 262 694 250T679 230H98Q84 237 84 250Z"></path>
<path stroke-width="1" id="E4-MJSZ3-5B" d="M247 -949V1450H516V1388H309V-887H516V-949H247Z"></path>
<path stroke-width="1" id="E4-MJSZ3-5D" d="M11 1388V1450H280V-949H11V-887H218V1388H11Z"></path>
</defs>
<g stroke="currentColor" fill="currentColor" stroke-width="0" transform="matrix(1 0 0 -1 0 0)" aria-hidden="true">
 <use xlink:href="#E4-MJMATHI-50" x="0" y="0"></use>
 <use xlink:href="#E4-MJMAIN-3D" x="1029" y="0"></use>
<g transform="translate(2085,0)">
<g transform="translate(0,2225)">
 <use xlink:href="#E4-MJSZ4-23A1" x="0" y="-1155"></use>
<g transform="translate(0,-2199.2566225165565) scale(1,0.7433774834437086)">
 <use xlink:href="#E4-MJSZ4-23A2"></use>
</g>
 <use xlink:href="#E4-MJSZ4-23A3" x="0" y="-3306"></use>
</g>
<g transform="translate(834,0)">
<g transform="translate(-11,0)">
 <use xlink:href="#E4-MJMAIN-7C" x="1144" y="1425"></use>
<g transform="translate(0,-25)">
 <use xlink:href="#E4-MJMAIN-52"></use>
 <use xlink:href="#E4-MJMAIN-65" x="736" y="0"></use>
 <use xlink:href="#E4-MJMAIN-28" x="1181" y="0"></use>
 <use xlink:href="#E4-MJMAINB-76" x="1570" y="0"></use>
 <use xlink:href="#E4-MJMAIN-29" x="2178" y="0"></use>
</g>
 <use xlink:href="#E4-MJMAIN-7C" x="1144" y="-1476"></use>
</g>
<g transform="translate(3557,0)">
 <use xlink:href="#E4-MJMAIN-7C" x="1151" y="1425"></use>
<g transform="translate(0,-25)">
 <use xlink:href="#E4-MJMAIN-49"></use>
 <use xlink:href="#E4-MJMAIN-6D" x="361" y="0"></use>
 <use xlink:href="#E4-MJMAIN-28" x="1195" y="0"></use>
 <use xlink:href="#E4-MJMAINB-76" x="1584" y="0"></use>
 <use xlink:href="#E4-MJMAIN-29" x="2192" y="0"></use>
</g>
 <use xlink:href="#E4-MJMAIN-7C" x="1151" y="-1476"></use>
</g>
</g>
<g transform="translate(7140,2225)">
 <use xlink:href="#E4-MJSZ4-23A4" x="0" y="-1155"></use>
<g transform="translate(0,-2199.2566225165565) scale(1,0.7433774834437086)">
 <use xlink:href="#E4-MJSZ4-23A5"></use>
</g>
 <use xlink:href="#E4-MJSZ4-23A6" x="0" y="-3306"></use>
</g>
</g>
 <use xlink:href="#E4-MJMAIN-2C" x="10059" y="0"></use>
 <use xlink:href="#E4-MJMATHI-43" x="12504" y="0"></use>
 <use xlink:href="#E4-MJMAIN-3D" x="13543" y="0"></use>
<g transform="translate(14599,0)">
 <use xlink:href="#E4-MJSZ3-5B"></use>
<g transform="translate(695,0)">
<g transform="translate(-11,0)">
<g transform="translate(396,701)">
 <use xlink:href="#E4-MJMAIN-52"></use>
 <use xlink:href="#E4-MJMAIN-65" x="736" y="0"></use>
 <use xlink:href="#E4-MJMAIN-28" x="1181" y="0"></use>
 <use xlink:href="#E4-MJMATHI-3BB" x="1570" y="0"></use>
 <use xlink:href="#E4-MJMAIN-29" x="2154" y="0"></use>
</g>
<g transform="translate(0,-750)">
 <use xlink:href="#E4-MJMAIN-2212" x="0" y="0"></use>
<g transform="translate(778,0)">
 <use xlink:href="#E4-MJMAIN-49"></use>
 <use xlink:href="#E4-MJMAIN-6D" x="361" y="0"></use>
</g>
 <use xlink:href="#E4-MJMAIN-28" x="1973" y="0"></use>
 <use xlink:href="#E4-MJMATHI-3BB" x="2363" y="0"></use>
 <use xlink:href="#E4-MJMAIN-29" x="2946" y="0"></use>
</g>
</g>
<g transform="translate(4325,0)">
<g transform="translate(0,701)">
 <use xlink:href="#E4-MJMAIN-49"></use>
 <use xlink:href="#E4-MJMAIN-6D" x="361" y="0"></use>
 <use xlink:href="#E4-MJMAIN-28" x="1195" y="0"></use>
 <use xlink:href="#E4-MJMATHI-3BB" x="1584" y="0"></use>
 <use xlink:href="#E4-MJMAIN-29" x="2168" y="0"></use>
</g>
<g transform="translate(7,-750)">
 <use xlink:href="#E4-MJMAIN-52"></use>
 <use xlink:href="#E4-MJMAIN-65" x="736" y="0"></use>
 <use xlink:href="#E4-MJMAIN-28" x="1181" y="0"></use>
 <use xlink:href="#E4-MJMATHI-3BB" x="1570" y="0"></use>
 <use xlink:href="#E4-MJMAIN-29" x="2154" y="0"></use>
</g>
</g>
</g>
 <use xlink:href="#E4-MJSZ3-5D" x="7745" y="-1"></use>
</g>
 <use xlink:href="#E4-MJMAIN-2C" x="23040" y="0"></use>
</g>
</svg>