<svg xmlns:xlink="http://www.w3.org/1999/xlink" width="23.695ex" height="9.176ex" style="vertical-align: -4.005ex;" viewBox="0 -2226.5 10201.8 3950.7" role="img" focusable="false" xmlns="http://www.w3.org/2000/svg" aria-labelledby="MathJax-SVG-16-Title">
<title id="MathJax-SVG-16-Title">C^T=<mjx-container class="MathJax CtxtMenu_Attached_0" jax="CHTML" display="true" tabindex="0" ctxtmenu_counter="13" style="font-size: 113.1%; position: relative;"><mjx-math display="true" class="MJX-TEX" aria-hidden="true" style="margin-left: 0px; margin-right: 0px;"><mjx-mrow><mjx-mo class="mjx-n"><mjx-stretchy-v class="mjx-c5B" style="height: 3.8em; vertical-align: -1.65em;"><mjx-beg><mjx-c></mjx-c></mjx-beg><mjx-ext><mjx-c></mjx-c></mjx-ext><mjx-end><mjx-c></mjx-c></mjx-end><mjx-mark></mjx-mark></mjx-stretchy-v></mjx-mo><mjx-mtable style="min-width: 5.834em;"><mjx-table><mjx-itable><mjx-mtr><mjx-mtd style="padding-right: 0.5em; padding-bottom: 0.2em;"><mjx-mn class="mjx-n"><mjx-c class="mjx-c31"></mjx-c></mjx-mn><mjx-tstrut></mjx-tstrut></mjx-mtd><mjx-mtd style="padding-left: 0.5em; padding-right: 0.5em; padding-bottom: 0.2em;"><mjx-mo class="mjx-n"><mjx-c class="mjx-c2212"></mjx-c></mjx-mo><mjx-mn class="mjx-n"><mjx-c class="mjx-c31"></mjx-c></mjx-mn><mjx-tstrut></mjx-tstrut></mjx-mtd><mjx-mtd style="padding-left: 0.5em; padding-bottom: 0.2em;"><mjx-mo class="mjx-n"><mjx-c class="mjx-c2212"></mjx-c></mjx-mo><mjx-mn class="mjx-n"><mjx-c class="mjx-c31"></mjx-c></mjx-mn><mjx-tstrut></mjx-tstrut></mjx-mtd></mjx-mtr><mjx-mtr><mjx-mtd style="padding-right: 0.5em; padding-top: 0.2em; padding-bottom: 0.2em;"><mjx-mn class="mjx-n"><mjx-c class="mjx-c32"></mjx-c></mjx-mn><mjx-tstrut></mjx-tstrut></mjx-mtd><mjx-mtd style="padding: 0.2em 0.5em;"><mjx-mo class="mjx-n"><mjx-c class="mjx-c2212"></mjx-c></mjx-mo><mjx-mn class="mjx-n"><mjx-c class="mjx-c32"></mjx-c></mjx-mn><mjx-tstrut></mjx-tstrut></mjx-mtd><mjx-mtd style="padding-left: 0.5em; padding-top: 0.2em; padding-bottom: 0.2em;"><mjx-mo class="mjx-n"><mjx-c class="mjx-c2212"></mjx-c></mjx-mo><mjx-mn class="mjx-n"><mjx-c class="mjx-c31"></mjx-c></mjx-mn><mjx-tstrut></mjx-tstrut></mjx-mtd></mjx-mtr><mjx-mtr><mjx-mtd style="padding-right: 0.5em; padding-top: 0.2em;"><mjx-mo class="mjx-n"><mjx-c class="mjx-c2212"></mjx-c></mjx-mo><mjx-mn class="mjx-n"><mjx-c class="mjx-c38"></mjx-c></mjx-mn><mjx-tstrut></mjx-tstrut></mjx-mtd><mjx-mtd style="padding-left: 0.5em; padding-right: 0.5em; padding-top: 0.2em;"><mjx-mn class="mjx-n"><mjx-c class="mjx-c37"></mjx-c></mjx-mn><mjx-tstrut></mjx-tstrut></mjx-mtd><mjx-mtd style="padding-left: 0.5em; padding-top: 0.2em;"><mjx-mn class="mjx-n"><mjx-c class="mjx-c34"></mjx-c></mjx-mn><mjx-tstrut></mjx-tstrut></mjx-mtd></mjx-mtr></mjx-itable></mjx-table></mjx-mtable><mjx-mo class="mjx-n"><mjx-stretchy-v class="mjx-c5D" style="height: 3.8em; vertical-align: -1.65em;"><mjx-beg><mjx-c></mjx-c></mjx-beg><mjx-ext><mjx-c></mjx-c></mjx-ext><mjx-end><mjx-c></mjx-c></mjx-end><mjx-mark></mjx-mark></mjx-stretchy-v></mjx-mo></mjx-mrow></mjx-math><mjx-assistive-mml unselectable="on" display="block"><math xmlns="http://www.w3.org/1998/Math/MathML" display="block"><mrow data-mjx-texclass="INNER"><mo data-mjx-texclass="OPEN">[</mo><mtable columnspacing="1em" rowspacing="4pt"><mtr><mtd><mn>1</mn></mtd><mtd><mo>−</mo><mn>1</mn></mtd><mtd><mo>−</mo><mn>1</mn></mtd></mtr><mtr><mtd><mn>2</mn></mtd><mtd><mo>−</mo><mn>2</mn></mtd><mtd><mo>−</mo><mn>1</mn></mtd></mtr><mtr><mtd><mo>−</mo><mn>8</mn></mtd><mtd><mn>7</mn></mtd><mtd><mn>4</mn></mtd></mtr></mtable><mo data-mjx-texclass="CLOSE">]</mo></mrow></math></mjx-assistive-mml></mjx-container> </title>
<defs aria-hidden="true">
<path stroke-width="1" id="E16-MJMATHI-43" d="M50 252Q50 367 117 473T286 641T490 704Q580 704 633 653Q642 643 648 636T656 626L657 623Q660 623 684 649Q691 655 699 663T715 679T725 690L740 705H746Q760 705 760 698Q760 694 728 561Q692 422 692 421Q690 416 687 415T669 413H653Q647 419 647 422Q647 423 648 429T650 449T651 481Q651 552 619 605T510 659Q484 659 454 652T382 628T299 572T226 479Q194 422 175 346T156 222Q156 108 232 58Q280 24 350 24Q441 24 512 92T606 240Q610 253 612 255T628 257Q648 257 648 248Q648 243 647 239Q618 132 523 55T319 -22Q206 -22 128 53T50 252Z"></path>
<path stroke-width="1" id="E16-MJMATHI-54" d="M40 437Q21 437 21 445Q21 450 37 501T71 602L88 651Q93 669 101 677H569H659Q691 677 697 676T704 667Q704 661 687 553T668 444Q668 437 649 437Q640 437 637 437T631 442L629 445Q629 451 635 490T641 551Q641 586 628 604T573 629Q568 630 515 631Q469 631 457 630T439 622Q438 621 368 343T298 60Q298 48 386 46Q418 46 427 45T436 36Q436 31 433 22Q429 4 424 1L422 0Q419 0 415 0Q410 0 363 1T228 2Q99 2 64 0H49Q43 6 43 9T45 27Q49 40 55 46H83H94Q174 46 189 55Q190 56 191 56Q196 59 201 76T241 233Q258 301 269 344Q339 619 339 625Q339 630 310 630H279Q212 630 191 624Q146 614 121 583T67 467Q60 445 57 441T43 437H40Z"></path>
<path stroke-width="1" id="E16-MJMAIN-3D" d="M56 347Q56 360 70 367H707Q722 359 722 347Q722 336 708 328L390 327H72Q56 332 56 347ZM56 153Q56 168 72 173H708Q722 163 722 153Q722 140 707 133H70Q56 140 56 153Z"></path>
<path stroke-width="1" id="E16-MJMAIN-5B" d="M118 -250V750H255V710H158V-210H255V-250H118Z"></path>
<path stroke-width="1" id="E16-MJMAIN-31" d="M213 578L200 573Q186 568 160 563T102 556H83V602H102Q149 604 189 617T245 641T273 663Q275 666 285 666Q294 666 302 660V361L303 61Q310 54 315 52T339 48T401 46H427V0H416Q395 3 257 3Q121 3 100 0H88V46H114Q136 46 152 46T177 47T193 50T201 52T207 57T213 61V578Z"></path>
<path stroke-width="1" id="E16-MJMAIN-2212" d="M84 237T84 250T98 270H679Q694 262 694 250T679 230H98Q84 237 84 250Z"></path>
<path stroke-width="1" id="E16-MJMAIN-32" d="M109 429Q82 429 66 447T50 491Q50 562 103 614T235 666Q326 666 387 610T449 465Q449 422 429 383T381 315T301 241Q265 210 201 149L142 93L218 92Q375 92 385 97Q392 99 409 186V189H449V186Q448 183 436 95T421 3V0H50V19V31Q50 38 56 46T86 81Q115 113 136 137Q145 147 170 174T204 211T233 244T261 278T284 308T305 340T320 369T333 401T340 431T343 464Q343 527 309 573T212 619Q179 619 154 602T119 569T109 550Q109 549 114 549Q132 549 151 535T170 489Q170 464 154 447T109 429Z"></path>
<path stroke-width="1" id="E16-MJMAIN-38" d="M70 417T70 494T124 618T248 666Q319 666 374 624T429 515Q429 485 418 459T392 417T361 389T335 371T324 363L338 354Q352 344 366 334T382 323Q457 264 457 174Q457 95 399 37T249 -22Q159 -22 101 29T43 155Q43 263 172 335L154 348Q133 361 127 368Q70 417 70 494ZM286 386L292 390Q298 394 301 396T311 403T323 413T334 425T345 438T355 454T364 471T369 491T371 513Q371 556 342 586T275 624Q268 625 242 625Q201 625 165 599T128 534Q128 511 141 492T167 463T217 431Q224 426 228 424L286 386ZM250 21Q308 21 350 55T392 137Q392 154 387 169T375 194T353 216T330 234T301 253T274 270Q260 279 244 289T218 306L210 311Q204 311 181 294T133 239T107 157Q107 98 150 60T250 21Z"></path>
<path stroke-width="1" id="E16-MJMAIN-37" d="M55 458Q56 460 72 567L88 674Q88 676 108 676H128V672Q128 662 143 655T195 646T364 644H485V605L417 512Q408 500 387 472T360 435T339 403T319 367T305 330T292 284T284 230T278 162T275 80Q275 66 275 52T274 28V19Q270 2 255 -10T221 -22Q210 -22 200 -19T179 0T168 40Q168 198 265 368Q285 400 349 489L395 552H302Q128 552 119 546Q113 543 108 522T98 479L95 458V455H55V458Z"></path>
<path stroke-width="1" id="E16-MJMAIN-34" d="M462 0Q444 3 333 3Q217 3 199 0H190V46H221Q241 46 248 46T265 48T279 53T286 61Q287 63 287 115V165H28V211L179 442Q332 674 334 675Q336 677 355 677H373L379 671V211H471V165H379V114Q379 73 379 66T385 54Q393 47 442 46H471V0H462ZM293 211V545L74 212L183 211H293Z"></path>
<path stroke-width="1" id="E16-MJMAIN-5D" d="M22 710V750H159V-250H22V-210H119V710H22Z"></path>
<path stroke-width="1" id="E16-MJSZ4-23A1" d="M319 -645V1154H666V1070H403V-645H319Z"></path>
<path stroke-width="1" id="E16-MJSZ4-23A3" d="M319 -644V1155H403V-560H666V-644H319Z"></path>
<path stroke-width="1" id="E16-MJSZ4-23A2" d="M319 0V602H403V0H319Z"></path>
<path stroke-width="1" id="E16-MJSZ4-23A4" d="M0 1070V1154H347V-645H263V1070H0Z"></path>
<path stroke-width="1" id="E16-MJSZ4-23A6" d="M263 -560V1155H347V-644H0V-560H263Z"></path>
<path stroke-width="1" id="E16-MJSZ4-23A5" d="M263 0V602H347V0H263Z"></path>
</defs>
<g stroke="currentColor" fill="currentColor" stroke-width="0" transform="matrix(1 0 0 -1 0 0)" aria-hidden="true">
 <use xlink:href="#E16-MJMATHI-43" x="0" y="0"></use>
 <use transform="scale(0.707)" xlink:href="#E16-MJMATHI-54" x="1094" y="583"></use>
 <use xlink:href="#E16-MJMAIN-3D" x="1649" y="0"></use>
<g transform="translate(2706,0)">
<g transform="translate(0,2150)">
 <use xlink:href="#E16-MJSZ4-23A1" x="0" y="-1155"></use>
<g transform="translate(0,-2048.5066225165565) scale(1,0.49337748344370863)">
 <use xlink:href="#E16-MJSZ4-23A2"></use>
</g>
 <use xlink:href="#E16-MJSZ4-23A3" x="0" y="-3155"></use>
</g>
<g transform="translate(834,0)">
<g transform="translate(-11,0)">
 <use xlink:href="#E16-MJMAIN-31" x="389" y="1350"></use>
 <use xlink:href="#E16-MJMAIN-32" x="389" y="-50"></use>
<g transform="translate(0,-1450)">
 <use xlink:href="#E16-MJMAIN-2212" x="0" y="0"></use>
 <use xlink:href="#E16-MJMAIN-38" x="778" y="0"></use>
</g>
</g>
<g transform="translate(2268,0)">
<g transform="translate(0,1350)">
 <use xlink:href="#E16-MJMAIN-2212" x="0" y="0"></use>
 <use xlink:href="#E16-MJMAIN-31" x="778" y="0"></use>
</g>
<g transform="translate(0,-50)">
 <use xlink:href="#E16-MJMAIN-2212" x="0" y="0"></use>
 <use xlink:href="#E16-MJMAIN-32" x="778" y="0"></use>
</g>
 <use xlink:href="#E16-MJMAIN-37" x="389" y="-1450"></use>
</g>
<g transform="translate(4547,0)">
<g transform="translate(0,1350)">
 <use xlink:href="#E16-MJMAIN-2212" x="0" y="0"></use>
 <use xlink:href="#E16-MJMAIN-31" x="778" y="0"></use>
</g>
<g transform="translate(0,-50)">
 <use xlink:href="#E16-MJMAIN-2212" x="0" y="0"></use>
 <use xlink:href="#E16-MJMAIN-31" x="778" y="0"></use>
</g>
 <use xlink:href="#E16-MJMAIN-34" x="389" y="-1450"></use>
</g>
</g>
<g transform="translate(6828,2150)">
 <use xlink:href="#E16-MJSZ4-23A4" x="0" y="-1155"></use>
<g transform="translate(0,-2048.5066225165565) scale(1,0.49337748344370863)">
 <use xlink:href="#E16-MJSZ4-23A5"></use>
</g>
 <use xlink:href="#E16-MJSZ4-23A6" x="0" y="-3155"></use>
</g>
</g>
</g>
</svg>