<svg xmlns:xlink="http://www.w3.org/1999/xlink" width="32.175ex" height="18.176ex" style="vertical-align: -8.505ex;" viewBox="0 -4164 13853.1 7825.7" role="img" focusable="false" xmlns="http://www.w3.org/2000/svg" aria-labelledby="MathJax-SVG-26-Title">
<title id="MathJax-SVG-26-Title">
\dfrac{\mathbf{v}_3}{\|\mathbf{v}_3\|} 
= \dfrac{1}{\sqrt{6}} <mjx-container class="MathJax CtxtMenu_Attached_0" jax="CHTML" display="true" tabindex="0" ctxtmenu_counter="18" style="font-size: 113.1%; position: relative;"><mjx-math display="true" class="MJX-TEX" aria-hidden="true" style="margin-left: 0px; margin-right: 0px;"><mjx-mrow><mjx-mo class="mjx-n"><mjx-stretchy-v class="mjx-c5B" style="height: 3.8em; vertical-align: -1.65em;"><mjx-beg><mjx-c></mjx-c></mjx-beg><mjx-ext><mjx-c></mjx-c></mjx-ext><mjx-end><mjx-c></mjx-c></mjx-end><mjx-mark></mjx-mark></mjx-stretchy-v></mjx-mo><mjx-mtable style="min-width: 1.278em;"><mjx-table><mjx-itable><mjx-mtr><mjx-mtd style="padding-bottom: 0.2em;"><mjx-mo class="mjx-n"><mjx-c class="mjx-c2212"></mjx-c></mjx-mo><mjx-mn class="mjx-n"><mjx-c class="mjx-c31"></mjx-c></mjx-mn><mjx-tstrut></mjx-tstrut></mjx-mtd></mjx-mtr><mjx-mtr><mjx-mtd style="padding-top: 0.2em; padding-bottom: 0.2em;"><mjx-mo class="mjx-n"><mjx-c class="mjx-c2212"></mjx-c></mjx-mo><mjx-mn class="mjx-n"><mjx-c class="mjx-c31"></mjx-c></mjx-mn><mjx-tstrut></mjx-tstrut></mjx-mtd></mjx-mtr><mjx-mtr><mjx-mtd style="padding-top: 0.2em;"><mjx-mn class="mjx-n"><mjx-c class="mjx-c32"></mjx-c></mjx-mn><mjx-tstrut></mjx-tstrut></mjx-mtd></mjx-mtr></mjx-itable></mjx-table></mjx-mtable><mjx-mo class="mjx-n"><mjx-stretchy-v class="mjx-c5D" style="height: 3.8em; vertical-align: -1.65em;"><mjx-beg><mjx-c></mjx-c></mjx-beg><mjx-ext><mjx-c></mjx-c></mjx-ext><mjx-end><mjx-c></mjx-c></mjx-end><mjx-mark></mjx-mark></mjx-stretchy-v></mjx-mo></mjx-mrow></mjx-math><mjx-assistive-mml unselectable="on" display="block"><math xmlns="http://www.w3.org/1998/Math/MathML" display="block"><mrow data-mjx-texclass="INNER"><mo data-mjx-texclass="OPEN">[</mo><mtable columnspacing="1em" rowspacing="4pt"><mtr><mtd><mo>−</mo><mn>1</mn></mtd></mtr><mtr><mtd><mo>−</mo><mn>1</mn></mtd></mtr><mtr><mtd><mn>2</mn></mtd></mtr></mtable><mo data-mjx-texclass="CLOSE">]</mo></mrow></math></mjx-assistive-mml></mjx-container> 
= <mjx-container class="MathJax CtxtMenu_Attached_0" jax="CHTML" display="true" tabindex="0" ctxtmenu_counter="19" style="font-size: 113.1%; position: relative;"><mjx-math display="true" class="MJX-TEX" aria-hidden="true" style="margin-left: 0px; margin-right: 0px;"><mjx-mrow><mjx-mo class="mjx-n"><mjx-stretchy-v class="mjx-c5B" style="height: 7.801em; vertical-align: -3.65em;"><mjx-beg><mjx-c></mjx-c></mjx-beg><mjx-ext><mjx-c></mjx-c></mjx-ext><mjx-end><mjx-c></mjx-c></mjx-end><mjx-mark></mjx-mark></mjx-stretchy-v></mjx-mo><mjx-mtable style="min-width: 2.571em;"><mjx-table><mjx-itable><mjx-mtr><mjx-mtd style="padding-bottom: 0.2em;"><mjx-mo class="mjx-n"><mjx-c class="mjx-c2212"></mjx-c></mjx-mo><mjx-mstyle><mjx-mfrac><mjx-frac type="d"><mjx-num><mjx-nstrut type="d"></mjx-nstrut><mjx-msqrt><mjx-sqrt><mjx-surd><mjx-mo class="mjx-n"><mjx-c class="mjx-c221A"></mjx-c></mjx-mo></mjx-surd><mjx-box style="padding-top: 0.163em;"><mjx-mn class="mjx-n"><mjx-c class="mjx-c36"></mjx-c></mjx-mn></mjx-box></mjx-sqrt></mjx-msqrt></mjx-num><mjx-dbox><mjx-dtable><mjx-line type="d"></mjx-line><mjx-row><mjx-den><mjx-dstrut type="d"></mjx-dstrut><mjx-mn class="mjx-n"><mjx-c class="mjx-c36"></mjx-c></mjx-mn></mjx-den></mjx-row></mjx-dtable></mjx-dbox></mjx-frac></mjx-mfrac></mjx-mstyle><mjx-tstrut></mjx-tstrut></mjx-mtd></mjx-mtr><mjx-mtr><mjx-mtd style="padding-top: 0.2em; padding-bottom: 0.2em;"><mjx-mo class="mjx-n"><mjx-c class="mjx-c2212"></mjx-c></mjx-mo><mjx-mstyle><mjx-mfrac><mjx-frac type="d"><mjx-num><mjx-nstrut type="d"></mjx-nstrut><mjx-msqrt><mjx-sqrt><mjx-surd><mjx-mo class="mjx-n"><mjx-c class="mjx-c221A"></mjx-c></mjx-mo></mjx-surd><mjx-box style="padding-top: 0.163em;"><mjx-mn class="mjx-n"><mjx-c class="mjx-c36"></mjx-c></mjx-mn></mjx-box></mjx-sqrt></mjx-msqrt></mjx-num><mjx-dbox><mjx-dtable><mjx-line type="d"></mjx-line><mjx-row><mjx-den><mjx-dstrut type="d"></mjx-dstrut><mjx-mn class="mjx-n"><mjx-c class="mjx-c36"></mjx-c></mjx-mn></mjx-den></mjx-row></mjx-dtable></mjx-dbox></mjx-frac></mjx-mfrac></mjx-mstyle><mjx-tstrut></mjx-tstrut></mjx-mtd></mjx-mtr><mjx-mtr><mjx-mtd style="padding-top: 0.2em;"><mjx-mstyle><mjx-mfrac><mjx-frac type="d"><mjx-num><mjx-nstrut type="d"></mjx-nstrut><mjx-msqrt><mjx-sqrt><mjx-surd><mjx-mo class="mjx-n"><mjx-c class="mjx-c221A"></mjx-c></mjx-mo></mjx-surd><mjx-box style="padding-top: 0.163em;"><mjx-mn class="mjx-n"><mjx-c class="mjx-c36"></mjx-c></mjx-mn></mjx-box></mjx-sqrt></mjx-msqrt></mjx-num><mjx-dbox><mjx-dtable><mjx-line type="d"></mjx-line><mjx-row><mjx-den><mjx-dstrut type="d"></mjx-dstrut><mjx-mn class="mjx-n"><mjx-c class="mjx-c33"></mjx-c></mjx-mn></mjx-den></mjx-row></mjx-dtable></mjx-dbox></mjx-frac></mjx-mfrac></mjx-mstyle><mjx-tstrut></mjx-tstrut></mjx-mtd></mjx-mtr></mjx-itable></mjx-table></mjx-mtable><mjx-mo class="mjx-n"><mjx-stretchy-v class="mjx-c5D" style="height: 7.801em; vertical-align: -3.65em;"><mjx-beg><mjx-c></mjx-c></mjx-beg><mjx-ext><mjx-c></mjx-c></mjx-ext><mjx-end><mjx-c></mjx-c></mjx-end><mjx-mark></mjx-mark></mjx-stretchy-v></mjx-mo></mjx-mrow></mjx-math><mjx-assistive-mml unselectable="on" display="block"><math xmlns="http://www.w3.org/1998/Math/MathML" display="block"><mrow data-mjx-texclass="INNER"><mo data-mjx-texclass="OPEN">[</mo><mtable columnspacing="1em" rowspacing="4pt"><mtr><mtd><mo>−</mo><mstyle displaystyle="true" scriptlevel="0"><mfrac><msqrt><mn>6</mn></msqrt><mn>6</mn></mfrac></mstyle></mtd></mtr><mtr><mtd><mo>−</mo><mstyle displaystyle="true" scriptlevel="0"><mfrac><msqrt><mn>6</mn></msqrt><mn>6</mn></mfrac></mstyle></mtd></mtr><mtr><mtd><mstyle displaystyle="true" scriptlevel="0"><mfrac><msqrt><mn>6</mn></msqrt><mn>3</mn></mfrac></mstyle></mtd></mtr></mtable><mo data-mjx-texclass="CLOSE">]</mo></mrow></math></mjx-assistive-mml></mjx-container>
</title>
<defs aria-hidden="true">
<path stroke-width="1" id="E26-MJMAINB-76" d="M401 444Q413 441 495 441Q568 441 574 444H580V382H510L409 156Q348 18 339 6Q331 -4 320 -4Q318 -4 313 -4T303 -3H288Q273 -3 264 12T221 102Q206 135 197 156L96 382H26V444H34Q49 441 145 441Q252 441 270 444H279V382H231L284 264Q335 149 338 149Q338 150 389 264T442 381Q442 382 418 382H394V444H401Z"></path>
<path stroke-width="1" id="E26-MJMAIN-33" d="M127 463Q100 463 85 480T69 524Q69 579 117 622T233 665Q268 665 277 664Q351 652 390 611T430 522Q430 470 396 421T302 350L299 348Q299 347 308 345T337 336T375 315Q457 262 457 175Q457 96 395 37T238 -22Q158 -22 100 21T42 130Q42 158 60 175T105 193Q133 193 151 175T169 130Q169 119 166 110T159 94T148 82T136 74T126 70T118 67L114 66Q165 21 238 21Q293 21 321 74Q338 107 338 175V195Q338 290 274 322Q259 328 213 329L171 330L168 332Q166 335 166 348Q166 366 174 366Q202 366 232 371Q266 376 294 413T322 525V533Q322 590 287 612Q265 626 240 626Q208 626 181 615T143 592T132 580H135Q138 579 143 578T153 573T165 566T175 555T183 540T186 520Q186 498 172 481T127 463Z"></path>
<path stroke-width="1" id="E26-MJMAIN-2225" d="M133 736Q138 750 153 750Q164 750 170 739Q172 735 172 250T170 -239Q164 -250 152 -250Q144 -250 138 -244L137 -243Q133 -241 133 -179T132 250Q132 731 133 736ZM329 739Q334 750 346 750Q353 750 361 744L362 743Q366 741 366 679T367 250T367 -178T362 -243L361 -244Q355 -250 347 -250Q335 -250 329 -239Q327 -235 327 250T329 739Z"></path>
<path stroke-width="1" id="E26-MJMAIN-3D" d="M56 347Q56 360 70 367H707Q722 359 722 347Q722 336 708 328L390 327H72Q56 332 56 347ZM56 153Q56 168 72 173H708Q722 163 722 153Q722 140 707 133H70Q56 140 56 153Z"></path>
<path stroke-width="1" id="E26-MJMAIN-31" d="M213 578L200 573Q186 568 160 563T102 556H83V602H102Q149 604 189 617T245 641T273 663Q275 666 285 666Q294 666 302 660V361L303 61Q310 54 315 52T339 48T401 46H427V0H416Q395 3 257 3Q121 3 100 0H88V46H114Q136 46 152 46T177 47T193 50T201 52T207 57T213 61V578Z"></path>
<path stroke-width="1" id="E26-MJMAIN-36" d="M42 313Q42 476 123 571T303 666Q372 666 402 630T432 550Q432 525 418 510T379 495Q356 495 341 509T326 548Q326 592 373 601Q351 623 311 626Q240 626 194 566Q147 500 147 364L148 360Q153 366 156 373Q197 433 263 433H267Q313 433 348 414Q372 400 396 374T435 317Q456 268 456 210V192Q456 169 451 149Q440 90 387 34T253 -22Q225 -22 199 -14T143 16T92 75T56 172T42 313ZM257 397Q227 397 205 380T171 335T154 278T148 216Q148 133 160 97T198 39Q222 21 251 21Q302 21 329 59Q342 77 347 104T352 209Q352 289 347 316T329 361Q302 397 257 397Z"></path>
<path stroke-width="1" id="E26-MJMAIN-221A" d="M95 178Q89 178 81 186T72 200T103 230T169 280T207 309Q209 311 212 311H213Q219 311 227 294T281 177Q300 134 312 108L397 -77Q398 -77 501 136T707 565T814 786Q820 800 834 800Q841 800 846 794T853 782V776L620 293L385 -193Q381 -200 366 -200Q357 -200 354 -197Q352 -195 256 15L160 225L144 214Q129 202 113 190T95 178Z"></path>
<path stroke-width="1" id="E26-MJMAIN-5B" d="M118 -250V750H255V710H158V-210H255V-250H118Z"></path>
<path stroke-width="1" id="E26-MJMAIN-2212" d="M84 237T84 250T98 270H679Q694 262 694 250T679 230H98Q84 237 84 250Z"></path>
<path stroke-width="1" id="E26-MJMAIN-32" d="M109 429Q82 429 66 447T50 491Q50 562 103 614T235 666Q326 666 387 610T449 465Q449 422 429 383T381 315T301 241Q265 210 201 149L142 93L218 92Q375 92 385 97Q392 99 409 186V189H449V186Q448 183 436 95T421 3V0H50V19V31Q50 38 56 46T86 81Q115 113 136 137Q145 147 170 174T204 211T233 244T261 278T284 308T305 340T320 369T333 401T340 431T343 464Q343 527 309 573T212 619Q179 619 154 602T119 569T109 550Q109 549 114 549Q132 549 151 535T170 489Q170 464 154 447T109 429Z"></path>
<path stroke-width="1" id="E26-MJMAIN-5D" d="M22 710V750H159V-250H22V-210H119V710H22Z"></path>
<path stroke-width="1" id="E26-MJSZ4-23A1" d="M319 -645V1154H666V1070H403V-645H319Z"></path>
<path stroke-width="1" id="E26-MJSZ4-23A3" d="M319 -644V1155H403V-560H666V-644H319Z"></path>
<path stroke-width="1" id="E26-MJSZ4-23A2" d="M319 0V602H403V0H319Z"></path>
<path stroke-width="1" id="E26-MJSZ4-23A4" d="M0 1070V1154H347V-645H263V1070H0Z"></path>
<path stroke-width="1" id="E26-MJSZ4-23A6" d="M263 -560V1155H347V-644H0V-560H263Z"></path>
<path stroke-width="1" id="E26-MJSZ4-23A5" d="M263 0V602H347V0H263Z"></path>
</defs>
<g stroke="currentColor" fill="currentColor" stroke-width="0" transform="matrix(1 0 0 -1 0 0)" aria-hidden="true">
<g transform="translate(120,0)">
<rect stroke="none" width="2182" height="60" x="0" y="220"></rect>
<g transform="translate(560,685)">
 <use xlink:href="#E26-MJMAINB-76" x="0" y="0"></use>
 <use transform="scale(0.707)" xlink:href="#E26-MJMAIN-33" x="859" y="-213"></use>
</g>
<g transform="translate(60,-771)">
 <use xlink:href="#E26-MJMAIN-2225" x="0" y="0"></use>
<g transform="translate(500,0)">
 <use xlink:href="#E26-MJMAINB-76" x="0" y="0"></use>
 <use transform="scale(0.707)" xlink:href="#E26-MJMAIN-33" x="859" y="-213"></use>
</g>
 <use xlink:href="#E26-MJMAIN-2225" x="1561" y="0"></use>
</g>
</g>
 <use xlink:href="#E26-MJMAIN-3D" x="2700" y="0"></use>
<g transform="translate(3756,0)">
<g transform="translate(120,0)">
<rect stroke="none" width="1454" height="60" x="0" y="220"></rect>
 <use xlink:href="#E26-MJMAIN-31" x="476" y="676"></use>
<g transform="translate(60,-909)">
 <use xlink:href="#E26-MJMAIN-221A" x="0" y="28"></use>
<rect stroke="none" width="500" height="60" x="833" y="769"></rect>
 <use xlink:href="#E26-MJMAIN-36" x="833" y="0"></use>
</g>
</g>
</g>
<g transform="translate(5450,0)">
<g transform="translate(0,2150)">
 <use xlink:href="#E26-MJSZ4-23A1" x="0" y="-1155"></use>
<g transform="translate(0,-2048.5066225165565) scale(1,0.49337748344370863)">
 <use xlink:href="#E26-MJSZ4-23A2"></use>
</g>
 <use xlink:href="#E26-MJSZ4-23A3" x="0" y="-3155"></use>
</g>
<g transform="translate(834,0)">
<g transform="translate(-11,0)">
<g transform="translate(0,1350)">
 <use xlink:href="#E26-MJMAIN-2212" x="0" y="0"></use>
 <use xlink:href="#E26-MJMAIN-31" x="778" y="0"></use>
</g>
<g transform="translate(0,-50)">
 <use xlink:href="#E26-MJMAIN-2212" x="0" y="0"></use>
 <use xlink:href="#E26-MJMAIN-31" x="778" y="0"></use>
</g>
 <use xlink:href="#E26-MJMAIN-32" x="389" y="-1450"></use>
</g>
</g>
<g transform="translate(2270,2150)">
 <use xlink:href="#E26-MJSZ4-23A4" x="0" y="-1155"></use>
<g transform="translate(0,-2048.5066225165565) scale(1,0.49337748344370863)">
 <use xlink:href="#E26-MJSZ4-23A5"></use>
</g>
 <use xlink:href="#E26-MJSZ4-23A6" x="0" y="-3155"></use>
</g>
</g>
 <use xlink:href="#E26-MJMAIN-3D" x="8665" y="0"></use>
<g transform="translate(9722,0)">
<g transform="translate(0,4085)">
 <use xlink:href="#E26-MJSZ4-23A1" x="0" y="-1155"></use>
<g transform="translate(0,-5914.0346283112585) scale(1,6.903871688741722)">
 <use xlink:href="#E26-MJSZ4-23A2"></use>
</g>
 <use xlink:href="#E26-MJSZ4-23A3" x="0" y="-7027"></use>
</g>
<g transform="translate(834,0)">
<g transform="translate(-11,0)">
<g transform="translate(0,2504)">
 <use xlink:href="#E26-MJMAIN-2212" x="0" y="0"></use>
<g transform="translate(778,0)">
<g transform="translate(120,0)">
<rect stroke="none" width="1454" height="60" x="0" y="220"></rect>
<g transform="translate(60,692)">
 <use xlink:href="#E26-MJMAIN-221A" x="0" y="28"></use>
<rect stroke="none" width="500" height="60" x="833" y="769"></rect>
 <use xlink:href="#E26-MJMAIN-36" x="833" y="0"></use>
</g>
 <use xlink:href="#E26-MJMAIN-36" x="476" y="-687"></use>
</g>
</g>
</g>
<g transform="translate(0,-187)">
 <use xlink:href="#E26-MJMAIN-2212" x="0" y="0"></use>
<g transform="translate(778,0)">
<g transform="translate(120,0)">
<rect stroke="none" width="1454" height="60" x="0" y="220"></rect>
<g transform="translate(60,692)">
 <use xlink:href="#E26-MJMAIN-221A" x="0" y="28"></use>
<rect stroke="none" width="500" height="60" x="833" y="769"></rect>
 <use xlink:href="#E26-MJMAIN-36" x="833" y="0"></use>
</g>
 <use xlink:href="#E26-MJMAIN-36" x="476" y="-687"></use>
</g>
</g>
</g>
<g transform="translate(389,-2878)">
<g transform="translate(120,0)">
<rect stroke="none" width="1454" height="60" x="0" y="220"></rect>
<g transform="translate(60,692)">
 <use xlink:href="#E26-MJMAIN-221A" x="0" y="28"></use>
<rect stroke="none" width="500" height="60" x="833" y="769"></rect>
 <use xlink:href="#E26-MJMAIN-36" x="833" y="0"></use>
</g>
 <use xlink:href="#E26-MJMAIN-33" x="476" y="-686"></use>
</g>
</g>
</g>
</g>
<g transform="translate(3463,4085)">
 <use xlink:href="#E26-MJSZ4-23A4" x="0" y="-1155"></use>
<g transform="translate(0,-5914.0346283112585) scale(1,6.903871688741722)">
 <use xlink:href="#E26-MJSZ4-23A5"></use>
</g>
 <use xlink:href="#E26-MJSZ4-23A6" x="0" y="-7027"></use>
</g>
</g>
</g>
</svg>