<svg xmlns:xlink="http://www.w3.org/1999/xlink" width="25.751ex" height="4.509ex" style="vertical-align: -1.671ex;" viewBox="0 -1221.9 11087 1941.5" role="img" focusable="false" xmlns="http://www.w3.org/2000/svg" aria-labelledby="MathJax-SVG-4-Title">
<title id="MathJax-SVG-4-Title">
Y(s) = \fbox{<mjx-container class="MathJax CtxtMenu_Attached_0" jax="CHTML" tabindex="0" ctxtmenu_counter="4" style="font-size: 113.1%; position: relative;"><mjx-math class="MJX-TEX" aria-hidden="true"><mjx-texatom texclass="ORD"><mjx-mphantom><mjx-mi class="mjx-i"><mjx-c class="mjx-c1D434 TEX-I"></mjx-c></mjx-mi><mjx-mi class="mjx-i"><mjx-c class="mjx-c1D434 TEX-I"></mjx-c></mjx-mi><mjx-mi class="mjx-i"><mjx-c class="mjx-c1D434 TEX-I"></mjx-c></mjx-mi><mjx-mi class="mjx-i"><mjx-c class="mjx-c1D434 TEX-I"></mjx-c></mjx-mi><mjx-mi class="mjx-i"><mjx-c class="mjx-c1D434 TEX-I"></mjx-c></mjx-mi><mjx-mi class="mjx-i"><mjx-c class="mjx-c1D434 TEX-I"></mjx-c></mjx-mi><mjx-mi class="mjx-i"><mjx-c class="mjx-c1D434 TEX-I"></mjx-c></mjx-mi><mjx-msubsup><mjx-mi class="mjx-i"><mjx-c class="mjx-c1D434 TEX-I"></mjx-c></mjx-mi><mjx-script style="vertical-align: -0.323em; margin-left: 0px;"><mjx-mi class="mjx-i" size="s"><mjx-c class="mjx-c1D434 TEX-I"></mjx-c></mjx-mi><mjx-spacer style="margin-top: 0.18em;"></mjx-spacer><mjx-mi class="mjx-i" size="s"><mjx-c class="mjx-c1D434 TEX-I"></mjx-c></mjx-mi></mjx-script></mjx-msubsup></mjx-mphantom></mjx-texatom></mjx-math><mjx-assistive-mml unselectable="on" display="inline"><math xmlns="http://www.w3.org/1998/Math/MathML"><mrow data-mjx-texclass="ORD"><mphantom><mi>A</mi><mi>A</mi><mi>A</mi><mi>A</mi><mi>A</mi><mi>A</mi><mi>A</mi><msubsup><mi>A</mi><mi>A</mi><mi>A</mi></msubsup></mphantom></mrow></math></mjx-assistive-mml></mjx-container>}.
</title>
<defs aria-hidden="true">
<path stroke-width="1" id="E4-MJMATHI-59" d="M66 637Q54 637 49 637T39 638T32 641T30 647T33 664T42 682Q44 683 56 683Q104 680 165 680Q288 680 306 683H316Q322 677 322 674T320 656Q316 643 310 637H298Q242 637 242 624Q242 619 292 477T343 333L346 336Q350 340 358 349T379 373T411 410T454 461Q546 568 561 587T577 618Q577 634 545 637Q528 637 528 647Q528 649 530 661Q533 676 535 679T549 683Q551 683 578 682T657 680Q684 680 713 681T746 682Q763 682 763 673Q763 669 760 657T755 643Q753 637 734 637Q662 632 617 587Q608 578 477 424L348 273L322 169Q295 62 295 57Q295 46 363 46Q379 46 384 45T390 35Q390 33 388 23Q384 6 382 4T366 1Q361 1 324 1T232 2Q170 2 138 2T102 1Q84 1 84 9Q84 14 87 24Q88 27 89 30T90 35T91 39T93 42T96 44T101 45T107 45T116 46T129 46Q168 47 180 50T198 63Q201 68 227 171L252 274L129 623Q128 624 127 625T125 627T122 629T118 631T113 633T105 634T96 635T83 636T66 637Z"></path>
<path stroke-width="1" id="E4-MJMAIN-28" d="M94 250Q94 319 104 381T127 488T164 576T202 643T244 695T277 729T302 750H315H319Q333 750 333 741Q333 738 316 720T275 667T226 581T184 443T167 250T184 58T225 -81T274 -167T316 -220T333 -241Q333 -250 318 -250H315H302L274 -226Q180 -141 137 -14T94 250Z"></path>
<path stroke-width="1" id="E4-MJMATHI-73" d="M131 289Q131 321 147 354T203 415T300 442Q362 442 390 415T419 355Q419 323 402 308T364 292Q351 292 340 300T328 326Q328 342 337 354T354 372T367 378Q368 378 368 379Q368 382 361 388T336 399T297 405Q249 405 227 379T204 326Q204 301 223 291T278 274T330 259Q396 230 396 163Q396 135 385 107T352 51T289 7T195 -10Q118 -10 86 19T53 87Q53 126 74 143T118 160Q133 160 146 151T160 120Q160 94 142 76T111 58Q109 57 108 57T107 55Q108 52 115 47T146 34T201 27Q237 27 263 38T301 66T318 97T323 122Q323 150 302 164T254 181T195 196T148 231Q131 256 131 289Z"></path>
<path stroke-width="1" id="E4-MJMAIN-29" d="M60 749L64 750Q69 750 74 750H86L114 726Q208 641 251 514T294 250Q294 182 284 119T261 12T224 -76T186 -143T145 -194T113 -227T90 -246Q87 -249 86 -250H74Q66 -250 63 -250T58 -247T55 -238Q56 -237 66 -225Q221 -64 221 250T66 725Q56 737 55 738Q55 746 60 749Z"></path>
<path stroke-width="1" id="E4-MJMAIN-3D" d="M56 347Q56 360 70 367H707Q722 359 722 347Q722 336 708 328L390 327H72Q56 332 56 347ZM56 153Q56 168 72 173H708Q722 163 722 153Q722 140 707 133H70Q56 140 56 153Z"></path>
<path stroke-width="1" id="E4-MJMATHI-41" d="M208 74Q208 50 254 46Q272 46 272 35Q272 34 270 22Q267 8 264 4T251 0Q249 0 239 0T205 1T141 2Q70 2 50 0H42Q35 7 35 11Q37 38 48 46H62Q132 49 164 96Q170 102 345 401T523 704Q530 716 547 716H555H572Q578 707 578 706L606 383Q634 60 636 57Q641 46 701 46Q726 46 726 36Q726 34 723 22Q720 7 718 4T704 0Q701 0 690 0T651 1T578 2Q484 2 455 0H443Q437 6 437 9T439 27Q443 40 445 43L449 46H469Q523 49 533 63L521 213H283L249 155Q208 86 208 74ZM516 260Q516 271 504 416T490 562L463 519Q447 492 400 412L310 260L413 259Q516 259 516 260Z"></path>
<path stroke-width="1" id="E4-MJMAIN-2E" d="M78 60Q78 84 95 102T138 120Q162 120 180 104T199 61Q199 36 182 18T139 0T96 17T78 60Z"></path>
</defs>
<g stroke="currentColor" fill="currentColor" stroke-width="0" transform="matrix(1 0 0 -1 0 0)" aria-hidden="true">
 <use xlink:href="#E4-MJMATHI-59" x="0" y="0"></use>
 <use xlink:href="#E4-MJMAIN-28" x="763" y="0"></use>
 <use xlink:href="#E4-MJMATHI-73" x="1153" y="0"></use>
 <use xlink:href="#E4-MJMAIN-29" x="1622" y="0"></use>
 <use xlink:href="#E4-MJMAIN-3D" x="2289" y="0"></use>
<g transform="translate(3623,0)">
<line stroke-linecap="square" stroke-width="75" y2="37" y1="37" x1="37" x2="7147" transform="translate(0,1052)"></line>
<line stroke-linecap="square" stroke-width="75" y1="37" x2="37" x1="37" y2="1707" transform="translate(7109,-619)"></line>
<line stroke-linecap="square" stroke-width="75" y2="37" y1="37" x1="37" x2="7147" transform="translate(0,-619)"></line>
<line stroke-linecap="square" stroke-width="75" y1="37" x2="37" x1="37" y2="1707" transform="translate(0,-619)"></line>
</g>
 <use xlink:href="#E4-MJMAIN-2E" x="10808" y="0"></use>
</g>
</svg>